<svg width="62" height="58" viewBox="0 0 62 58" fill="none" xmlns="http://www.w3.org/2000/svg">
<path d="M60 52.4199C60 54.3599 58.3799 55.94 56.3799 56H5.62C3.62 55.96 2 54.3799 2 52.4199V22H60V52.4199Z" stroke="#00D5FF" stroke-width="3" stroke-miterlimit="10" stroke-linecap="round"/>
<path d="M22 48.4004V28.2197L42.34 38.2998L22 48.4004Z" stroke="#00D5FF" stroke-width="3" stroke-miterlimit="10" stroke-linecap="round" stroke-linejoin="round"/>
<path d="M60 16H2V5.51953C2 4.11953 2.99996 2 4.51996 2H57.48C59 2 60 4.13953 60 5.51953V16Z" stroke="#00D5FF" stroke-width="3" stroke-miterlimit="10" stroke-linecap="round"/>
<path d="M2 13L12 2" stroke="#00D5FF" stroke-width="3" stroke-miterlimit="10" stroke-linecap="round"/>
<path d="M9 16L22 2" stroke="#00D5FF" stroke-width="3" stroke-miterlimit="10" stroke-linecap="round"/>
<path d="M19 16L32 2" stroke="#00D5FF" stroke-width="3" stroke-miterlimit="10" stroke-linecap="round"/>
<path d="M30 16L43 2" stroke="#00D5FF" stroke-width="3" stroke-miterlimit="10" stroke-linecap="round"/>
<path d="M40 16L53 2" stroke="#00D5FF" stroke-width="3" stroke-miterlimit="10" stroke-linecap="round"/>
<path d="M50 16L59.96 5.08008" stroke="#00D5FF" stroke-width="3" stroke-miterlimit="10" stroke-linecap="round"/>
</svg>
