<svg width="62" height="62" viewBox="0 0 62 62" fill="none" xmlns="http://www.w3.org/2000/svg">
<path d="M29 60L60 29C57.04 26.04 57 21 60 18L44 2C42.12 5 35.96 4.96 33 2L2 33C4.96 35.96 4.96 41.04 2 44L18 60C20.94 57.04 26.04 57.04 29 60Z" stroke="#00D5FF" stroke-width="3" stroke-miterlimit="10" stroke-linecap="round" stroke-linejoin="round"/>
<path d="M31.6408 47.3396C28.5208 50.4396 23.441 50.4396 20.321 47.3396L14.6408 41.66C11.5208 38.56 11.5208 33.4596 14.6408 30.3396L30.321 14.66C33.441 11.56 38.5208 11.56 41.6408 14.66L47.321 20.3396C50.441 23.4396 50.441 28.54 47.321 31.66L31.6408 47.3396Z" stroke="#00D5FF" stroke-width="3" stroke-miterlimit="10" stroke-linecap="round" stroke-linejoin="round"/>
<path d="M36 20L21 35" stroke="#00D5FF" stroke-width="3" stroke-miterlimit="10" stroke-linecap="round" stroke-linejoin="round"/>
<path d="M38 29L30 37" stroke="#00D5FF" stroke-width="3" stroke-miterlimit="10" stroke-linecap="round" stroke-linejoin="round"/>
</svg>
