<svg width="61" height="61" viewBox="0 0 61 61" fill="none" xmlns="http://www.w3.org/2000/svg">
<path d="M27.0009 39.1198C29.7844 39.1198 32.0408 36.8633 32.0408 34.0798C32.0408 31.2963 29.7844 29.0398 27.0009 29.0398C24.2174 29.0398 21.9609 31.2963 21.9609 34.0798C21.9609 36.8633 24.2174 39.1198 27.0009 39.1198Z" stroke="#00D5FF" stroke-width="3" stroke-miterlimit="10" stroke-linecap="round" stroke-linejoin="round"/>
<path d="M9.16016 44.7799L16.3001 51.9" stroke="#00D5FF" stroke-width="3" stroke-miterlimit="10" stroke-linecap="round" stroke-linejoin="round"/>
<path d="M52.7801 2L42.7001 12.08L43.9601 13.3398L33.8803 23.4198C26.7403 18.4598 18.3403 22.0396 17.4804 29.7195C1.94048 26.3795 -2.79944 43.4794 7.40048 53.6793C17.6404 63.9192 34.6802 59.0592 31.3603 43.5993C39.0202 42.7393 42.6601 34.3999 37.6601 27.2L47.7401 17.12L49.0001 18.3798L59.08 8.29976L52.7801 2Z" stroke="#00D5FF" stroke-width="3" stroke-miterlimit="10" stroke-linecap="round" stroke-linejoin="round"/>
<path d="M47.7402 2L50.2602 4.52049" stroke="#00D5FF" stroke-width="3" stroke-miterlimit="10" stroke-linecap="round" stroke-linejoin="round"/>
<path d="M43.9395 5.78027L46.4795 8.29978" stroke="#00D5FF" stroke-width="3" stroke-miterlimit="10" stroke-linecap="round" stroke-linejoin="round"/>
<path d="M59.0805 13.3397L56.5605 10.8202" stroke="#00D5FF" stroke-width="3" stroke-miterlimit="10" stroke-linecap="round" stroke-linejoin="round"/>
<path d="M55.3011 17.12L52.7812 14.5995" stroke="#00D5FF" stroke-width="3" stroke-miterlimit="10" stroke-linecap="round" stroke-linejoin="round"/>
</svg>
