<svg width="62" height="55" viewBox="0 0 62 55" fill="none" xmlns="http://www.w3.org/2000/svg">
<path d="M51 38.0009C53.08 38.0009 55 39.0009 55 42.0009C55 44.0809 53.08 45.0009 51 45.0009H48C50.08 45.0009 52 45.9209 52 48.0009C52 50.0809 51.08 51.0009 49 51.0009C49 51.0009 38.3 51.0009 32 51.0009C24.82 51.0009 22.82 49.2609 14 48.0009V27.0009C20.18 27.0009 31 15.4009 31 5.32094C31 1.34094 36.52 -0.159236 38.56 7.14076C39.82 11.6408 36 21.0009 36 21.0009H56C58.08 21.0009 60 22.9209 60 25.0009C60 27.0809 58.72 30.0009 56 30.0009H52.86C55.58 30.0009 58 31.9209 58 34.0009C58 36.0809 56.08 38.0009 54 38.0009H51" stroke="#00D5FF" stroke-width="3" stroke-miterlimit="10" stroke-linecap="round" stroke-linejoin="round"/>
<path d="M14 53.001H2V22.981L14 23.001V53.001Z" fill="#00D5FF" fill-opacity="0.5" stroke="#00D5FF" stroke-width="3" stroke-miterlimit="10" stroke-linecap="round" stroke-linejoin="round"/>
<path d="M9.80078 48.1809C9.80078 48.3093 9.68923 48.4209 9.56078 48.4209C9.48614 48.4209 9.42378 48.3881 9.38684 48.3508C9.35219 48.3157 9.32079 48.2576 9.32079 48.1809C9.32079 48.0525 9.43235 47.9409 9.56078 47.9409C9.68923 47.9409 9.80078 48.0525 9.80078 48.1809Z" stroke="#00D5FF" stroke-width="3"/>
</svg>
